<?xml version="1.0" encoding="UTF-8" standalone="no"?>
<!-- Created with Inkscape (http://www.inkscape.org/) -->

<svg
   width="400"
   height="400"
   viewBox="0 0 105.83334 105.83333"
   version="1.1"
   id="svg5"
   inkscape:export-filename="C:\Users\Walter\Downloads\bitmap.png"
   inkscape:export-xdpi="23.09091"
   inkscape:export-ydpi="23.09091"
   inkscape:version="1.1.2 (b8e25be833, 2022-02-05)"
   sodipodi:docname="nubes3.svg"
   xmlns:inkscape="http://www.inkscape.org/namespaces/inkscape"
   xmlns:sodipodi="http://sodipodi.sourceforge.net/DTD/sodipodi-0.dtd"
   xmlns="http://www.w3.org/2000/svg"
   xmlns:svg="http://www.w3.org/2000/svg">
  <sodipodi:namedview
     id="namedview7"
     pagecolor="#ffffff"
     bordercolor="#666666"
     borderopacity="1.0"
     inkscape:pageshadow="2"
     inkscape:pageopacity="0.0"
     inkscape:pagecheckerboard="0"
     inkscape:document-units="mm"
     showgrid="false"
     units="px"
     inkscape:zoom="1.4984147"
     inkscape:cx="360.71456"
     inkscape:cy="271.6204"
     inkscape:window-width="1920"
     inkscape:window-height="1027"
     inkscape:window-x="-8"
     inkscape:window-y="-8"
     inkscape:window-maximized="1"
     inkscape:current-layer="g1016" />
  <defs
     id="defs2">
    <rect
       x="449.80872"
       y="78.749893"
       width="535.2323"
       height="153.49556"
       id="rect5316" />
  </defs>
  <g
     inkscape:label="Capa 1"
     inkscape:groupmode="layer"
     id="layer1">
    <g
       id="g1016"
       transform="translate(-3.53151,-28.252081)">
      <path
         style="fill:#68bcea;stroke-width:0.0306122"
         d="m 35.359071,109.71539 c -4.6071,-0.17871 -9.04357,-1.56527 -12.816165,-4.00552 -2.177983,-1.40879 -4.24548,-3.31081 -5.760511,-5.29945 -0.33486,-0.439528 -0.81959,-1.123488 -0.81959,-1.156438 0,-0.0117 0.133642,0.0957 0.296978,0.23871 3.859491,3.379658 8.877628,5.501328 14.162058,5.987698 1.32847,0.12228 0.41682,0.11833 27.29903,0.11833 27.30903,0 26.10215,0.006 27.2896,-0.13367 5.83577,-0.68595 10.910598,-3.84942 13.730018,-8.558798 0.794676,-1.32739 1.439691,-2.90169 1.780051,-4.34461 0.65633,-2.78244 0.55974,-5.49272 -0.29269,-8.21301 -0.244885,-0.78148 -0.724915,-1.92832 -1.076651,-2.57224 l -0.0958,-0.17537 0.13545,0.11691 c 0.0745,0.0643 0.305146,0.28939 0.512536,0.50019 2.392155,2.43136 3.926565,5.42637 4.438465,8.66338 0.20428,1.29179 0.22904,2.91533 0.0644,4.22371 -0.61527,4.88997 -3.56556,9.245298 -8.093621,11.948108 -2.6471,1.58007 -5.642458,2.47785 -8.848538,2.65214 -0.46192,0.0251 -51.26314,0.0348 -51.90504,0.01 z m -16.094092,-3.78316 c -0.40183,-0.14821 -1.435574,-0.61695 -1.925828,-0.87323 -4.429738,-2.31565 -7.5879845,-6.229108 -8.7002775,-10.780718 -1.03512,-4.23581 -0.190792,-8.69647 2.3470305,-12.39958 2.801612,-4.08801 7.54117,-6.90159 12.774276,-7.58328 1.017829,-0.13259 1.295029,-0.14805 2.638131,-0.14718 1.33609,8.8e-4 1.69191,0.0222 2.6897,0.1609 0.22739,0.0316 0.4441,0.0575 0.48158,0.0575 0.0517,0 0.13372,-0.0899 0.33997,-0.3726 0.98046,-1.34398 2.34799,-2.79494 3.67774,-3.90212 3.6848,-3.06805 8.21497,-4.98792 13.15305,-5.57421 1.71281,-0.20335 3.72192,-0.23054 5.41813,-0.0733 5.11561,0.47423 9.856,2.38197 13.65753,5.49639 0.51233,0.41973 1.58956,1.41488 2.02232,1.86823 3.15818,3.30842 5.12959,7.32128 5.73406,11.67183 0.0703,0.50624 0.0835,0.73653 0.0394,0.69094 -0.0148,-0.0153 -0.0889,-0.18561 -0.16473,-0.37853 -1.01902,-2.59205 -2.80922,-5.0752 -4.99766,-6.93216 -3.35688,-2.84843 -7.52709,-4.50833 -12.06502,-4.80235 -0.60269,-0.0391 -2.09018,-0.0391 -2.671,0 -5.15558,0.34603 -9.82632,2.43219 -13.25703,5.92118 -1.49969,1.52516 -2.73393,3.34304 -3.56497,5.2508 -0.14532,0.33359 -0.27493,0.60652 -0.28802,0.60652 -0.0131,0 -0.14832,-0.074 -0.30049,-0.16443 -2.73603,-1.62601 -6.20433,-2.38326 -9.48795,-2.07155 -4.435117,0.42101 -8.385568,2.58417 -10.843851,5.93777 -2.341286,3.19399 -3.078206,7.06374 -2.059511,10.815 0.306214,1.12761 0.861729,2.395068 1.491739,3.403548 0.207233,0.33172 0.773171,1.11837 1.01529,1.41124 0.769987,0.9314 1.784098,1.87167 2.757723,2.55693 0.472403,0.33249 0.480392,0.3511 0.08867,0.20661 z M 85.789351,92.008842 c 0,-0.007 0.12623,-0.0951 0.28052,-0.19594 1.5708,-1.02646 2.95275,-2.35717 3.94948,-3.80304 1.138708,-1.65182 1.892388,-3.55853 2.163548,-5.47349 0.17135,-1.21004 0.16045,-2.55848 -0.0302,-3.73479 -0.35325,-2.17987 -1.343078,-4.34271 -2.798848,-6.11566 -0.61767,-0.75225 -1.59019,-1.69727 -2.29817,-2.23319 -1.95397,-1.47909 -4.1668,-2.46137 -6.55626,-2.91035 -1.06699,-0.20048 -1.93731,-0.28069 -3.0457,-0.28069 -0.81397,0 -1.285,0.0281 -2.0358,0.12128 -1.93023,0.23967 -3.91422,0.87707 -5.55934,1.78608 -0.11293,0.0624 -0.2193,0.10921 -0.23638,0.10402 -0.0171,-0.005 -0.10665,-0.2062 -0.19906,-0.44669 -1.59423,-4.14878 -4.74083,-7.56943 -8.93384,-9.71194 -2.50659,-1.28079 -5.25641,-2.02641 -8.21866,-2.22851 -0.58216,-0.0397 -2.08314,-0.0392 -2.677,8.5e-4 -6.10742,0.41234 -11.55704,3.29823 -14.93144,7.90708 -0.64942,0.88699 -1.33011,2.04063 -1.74193,2.95221 -0.29357,0.64986 -0.29398,0.65064 -0.30954,0.59195 -0.0183,-0.0689 0.10023,-0.76904 0.23623,-1.39577 1.34109,-6.18025 5.57706,-11.5553 11.58026,-14.69427 4.26511,-2.23014 9.23584,-3.2137 14.1432,-2.79852 4.52581,0.3829 8.89319,1.96212 12.50338,4.52115 0.77258,0.54763 1.37883,1.04169 2.21323,1.80365 1.36421,1.24578 2.3359,2.35161 3.34197,3.80334 l 0.33336,0.48102 0.14149,-0.003 c 0.0778,-10e-4 0.38674,-0.0275 0.6865,-0.058 0.67666,-0.0688 2.76344,-0.0801 3.41439,-0.0185 3.83189,0.36247 7.16536,1.63244 10.066818,3.83522 0.5274,0.4004 1.75815,1.52338 2.19421,2.00207 2.20708,2.42289 3.59439,5.2486 4.07146,8.29287 0.1458,0.93037 0.1624,1.17946 0.16124,2.41987 -0.001,1.25572 -0.0207,1.51326 -0.19028,2.51432 -0.45568,2.68945 -1.66739,5.27857 -3.49628,7.47067 -2.00878,2.40771 -4.639068,4.22424 -7.766268,5.36355 -0.37301,0.1359 -0.45633,0.15975 -0.45633,0.13065 z"
         id="path1022" />
      <path
         style="fill:#007ac2;stroke-width:0.0306122"
         d="m 19.264979,105.93223 c -1.388939,-0.55553 -2.942054,-1.4436 -4.233691,-2.42083 -0.533243,-0.40344 -1.82136,-1.58541 -2.254564,-2.06878 -2.475069,-2.76168 -3.8734973,-5.93663 -4.1545443,-9.43235 -0.0423,-0.52617 -0.0423,-1.75376 0,-2.27993 0.389566,-4.84551 3.0009193,-9.21528 7.2284163,-12.09584 1.533712,-1.04505 3.35412,-1.90817 5.19371,-2.46253 2.685716,-0.80933 5.663321,-1.02868 8.458098,-0.62307 0.22608,0.0328 0.428718,0.0535 0.450307,0.0459 0.02159,-0.008 0.168434,-0.18942 0.326326,-0.40416 1.263155,-1.71798 2.902572,-3.36056 4.679282,-4.68833 3.492802,-2.610247 7.795858,-4.286118 12.262927,-4.77594 1.086469,-0.119132 1.4009,-0.133703 2.885394,-0.133703 1.527875,0 1.865715,0.0166 3.013635,0.148043 7.8116,0.894503 14.65305,5.26334 18.26041,11.66081 1.29537,2.29727 2.10067,4.68594 2.4672,7.31822 0.0277,0.19884 0.0455,0.36589 0.0397,0.37124 -0.006,0.005 -0.0734,-0.14419 -0.15014,-0.33229 -2.33949,-5.73638 -7.85824,-10.03223 -14.4456,-11.2446 -1.47222,-0.27095 -2.3258,-0.34788 -3.87925,-0.34961 -1.50576,-0.002 -2.50056,0.0817 -3.81478,0.31977 -1.829906,0.33147 -3.387275,0.8212 -5.065828,1.59299 -4.299142,1.97674 -7.624818,5.2936 -9.393552,9.36867 -0.118625,0.2733 -0.219024,0.50035 -0.223112,0.50456 -0.0041,0.004 -0.208037,-0.10696 -0.453215,-0.24706 -0.926212,-0.52924 -2.155316,-1.0512 -3.215529,-1.36553 -3.106233,-0.92093 -6.345617,-0.90055 -9.435583,0.0594 -1.225276,0.38064 -2.288265,0.8533 -3.357438,1.49292 -2.258671,1.35121 -4.07561,3.24207 -5.246712,5.46016 -1.873364,3.5482 -1.969275,7.60873 -0.265661,11.24717 0.933403,1.99349 2.421125,3.79124 4.26772,5.15707 0.330377,0.24437 0.401704,0.30241 0.368689,0.30003 -0.0044,-3.2e-4 -0.145071,-0.0554 -0.312585,-0.12239 z"
         id="path1018" />
    </g>
  </g>
</svg>
